<?xml version="1.0" encoding="UTF-8"?>
<svg width="800" height="400" viewBox="0 0 800 400" xmlns="http://www.w3.org/2000/svg">
    <!-- WELCOME 文字 -->
    <g id="welcome-text">
        <path d="M 50 200 L 750 200" stroke="#1a73e8" stroke-width="2" stroke-dasharray="5,5"/>
        
        <!-- 装饰圆圈 -->
        <circle cx="650" cy="80" r="30" fill="none" stroke="#fff" stroke-width="2"/>
        <circle cx="680" cy="100" r="15" fill="none" stroke="#fff" stroke-width="2"/>
        <circle cx="700" cy="70" r="8" fill="#fff"/>
        
        <!-- 装饰叶子 -->
        <g transform="translate(150, 250)">
            <path d="M0 0 Q-10 -20 0 -40 Q10 -20 0 0" fill="#4CAF50" opacity="0.6"/>
            <path d="M0 -20 Q-15 -30 -10 -50 Q0 -40 0 -20" fill="#66BB6A" opacity="0.6"/>
            <path d="M0 -20 Q15 -30 10 -50 Q0 -40 0 -20" fill="#66BB6A" opacity="0.6"/>
        </g>
        
        <g transform="translate(550, 250)">
            <path d="M0 0 Q-10 -20 0 -40 Q10 -20 0 0" fill="#4CAF50" opacity="0.6"/>
            <path d="M0 -20 Q-15 -30 -10 -50 Q0 -40 0 -20" fill="#66BB6A" opacity="0.6"/>
            <path d="M0 -20 Q15 -30 10 -50 Q0 -40 0 -20" fill="#66BB6A" opacity="0.6"/>
        </g>
    </g>
    
    <!-- 人物1 - 跑步的人 -->
    <g transform="translate(100, 250)">
        <rect x="0" y="0" width="40" height="60" fill="#ffd54f" rx="5"/>
        <circle cx="20" cy="-15" r="15" fill="#fdb397"/>
        <path d="M10 -20 Q20 -25 30 -20" fill="none" stroke="#333" stroke-width="2"/>
        <!-- 运动姿势的腿 -->
        <path d="M15 60 L25 80 L35 60" fill="none" stroke="#333" stroke-width="3"/>
    </g>
    
    <!-- 人物2 - 举手的人 -->
    <g transform="translate(350, 250)">
        <rect x="0" y="0" width="40" height="60" fill="#4caf50" rx="5"/>
        <circle cx="20" cy="-15" r="15" fill="#fdb397"/>
        <!-- 举起的手 -->
        <path d="M20 10 L20 -50" stroke="#ffd54f" stroke-width="3"/>
        <rect x="15" y="-55" width="10" height="15" fill="#ffd54f" rx="2"/>
    </g>
    
    <!-- 人物3 - 坐着的人 -->
    <g transform="translate(600, 250)">
        <rect x="0" y="20" width="40" height="40" fill="#ffd54f" rx="5"/>
        <circle cx="20" cy="-15" r="15" fill="#fdb397"/>
        <!-- 笔记本电脑 -->
        <rect x="10" y="10" width="30" height="20" fill="#fff" rx="2"/>
        <rect x="10" y="30" width="30" height="2" fill="#ddd"/>
    </g>
</svg> 