<!DOCTYPE svg PUBLIC "-//W3C//DTD SVG 20010904//EN" "http://www.w3.org/TR/2001/REC-SVG-20010904/DTD/svg10.dtd">
<svg version="1.0" xmlns="http://www.w3.org/2000/svg" width="1178px" height="801px" viewBox="0 0 11780 8010" preserveAspectRatio="xMidYMid meet">
<g id="layer101" fill="#005bac" stroke="none">
 <path d="M0 4005 l0 -4005 5890 0 5890 0 0 4005 0 4005 -5890 0 -5890 0 0 -4005z"/>
 </g>
<g id="layer102" fill="#cacacb" stroke="none">
 <path d="M0 4005 l0 -4005 5890 0 5890 0 0 4005 0 4005 -5890 0 -5890 0 0 -4005z m6975 1780 c22 -1 146 -5 275 -9 129 -4 262 -9 295 -11 33 -3 123 -7 200 -10 291 -13 357 -21 411 -48 55 -28 109 -83 129 -131 22 -53 48 -220 60 -386 3 -47 8 -107 10 -135 3 -27 8 -134 11 -237 l7 -188 -575 0 -576 0 -7 148 c-3 81 -11 164 -16 184 -18 70 -3 68 -608 68 -297 0 -542 -4 -545 -9 -16 -26 -28 -1399 -14 -1661 l3 -55 535 0 c520 0 536 1 570 20 66 39 73 65 78 276 l5 189 580 0 580 0 -7 -187 c-4 -104 -9 -197 -11 -208 -2 -11 -7 -54 -10 -95 -17 -208 -48 -438 -64 -475 -53 -116 -195 -185 -408 -200 -239 -16 -838 -27 -1814 -32 -1209 -6 -1133 -11 -1223 68 -85 75 -121 178 -155 450 -45 346 -55 556 -56 1124 0 569 7 689 56 1041 31 225 52 289 124 372 72 83 156 126 275 142 54 7 1763 3 1885 -5z m-2859 -102 c-4 -60 -11 -162 -16 -228 -22 -276 -45 -732 -54 -1040 -3 -116 5 -386 18 -605 21 -336 29 -469 51 -785 14 -192 27 -362 30 -377 l5 -28 -288 0 c-293 0 -654 12 -932 30 -275 18 -554 43 -576 51 -46 17 -390 668 -488 921 -45 117 -121 346 -151 456 -10 34 -21 62 -25 62 -12 0 -65 -152 -115 -326 -64 -220 -155 -643 -201 -926 -9 -60 -21 -108 -26 -108 -40 0 -536 56 -661 75 -170 25 -204 39 -245 99 -41 61 -108 307 -146 542 -49 301 -61 462 -60 844 1 449 17 636 80 965 44 225 45 225 374 260 135 14 258 27 274 30 l29 5 -6 -52 c-3 -29 -17 -141 -31 -248 -60 -458 -68 -570 -73 -945 -2 -198 0 -378 4 -400 8 -37 11 -31 37 100 78 385 189 766 319 1096 74 188 194 458 211 476 9 10 99 19 456 48 30 2 87 7 125 9 39 3 109 8 158 12 75 5 87 4 87 -9 0 -42 34 -268 61 -407 91 -465 252 -1035 373 -1315 46 -108 123 -242 132 -232 2 2 0 136 -6 298 -14 415 -12 818 5 1069 17 245 43 560 50 606 l5 31 98 7 c212 14 490 26 742 32 146 4 267 8 269 10 2 2 29 4 59 4 l55 0 -7 -107z m5649 -28 c371 -28 802 -63 860 -70 22 -2 72 -7 110 -10 39 -3 88 -8 110 -10 76 -9 130 -14 240 -25 210 -21 265 -39 328 -109 96 -107 132 -270 144 -653 l6 -218 -355 0 -356 0 -7 118 c-8 134 -22 174 -70 196 -54 26 -263 39 -603 39 -55 0 -56 -5 -42 -185 6 -90 14 -174 17 -188 9 -48 11 -636 3 -745 -21 -276 -21 -271 -1 -297 19 -23 22 -23 188 -21 181 1 347 16 387 34 52 24 96 117 116 246 6 37 15 70 20 73 4 3 136 6 292 8 156 1 312 5 347 9 l64 6 -7 -114 c-15 -246 -60 -476 -126 -647 -50 -131 -138 -195 -310 -226 -293 -54 -1456 -157 -1795 -160 -165 -1 -185 1 -235 21 -69 28 -123 72 -155 127 -45 76 -48 126 -28 468 14 256 18 473 18 1193 l0 880 27 46 c64 109 187 187 353 224 82 18 97 18 460 -10z"/>
 </g>
<g id="layer103" fill="#ffffff" stroke="none">
 <path d="M0 4005 l0 -4005 5890 0 5890 0 0 4005 0 4005 -5890 0 -5890 0 0 -4005z m6320 3947 c85 -12 234 -30 330 -42 1385 -169 2606 -850 3307 -1846 84 -119 167 -253 161 -259 -2 -2 -114 4 -248 15 -135 11 -246 20 -247 20 -2 0 -21 29 -44 65 l-41 65 -254 0 c-140 0 -254 -2 -254 -5 0 -2 12 -30 26 -62 59 -131 57 -118 18 -136 l-35 -17 -51 110 -51 110 -3047 0 -3047 0 -48 -102 c-70 -150 -141 -341 -191 -518 -25 -85 -47 -156 -50 -159 -10 -10 -22 17 -33 75 -10 56 -9 67 19 161 34 116 97 282 164 432 25 57 46 105 46 107 0 2 -200 4 -445 4 l-444 0 -42 -62 c-24 -35 -47 -66 -53 -70 -20 -14 -76 -9 -76 6 0 21 188 297 283 416 334 416 786 790 1273 1054 600 326 1290 536 1999 611 83 9 213 24 290 35 191 25 560 22 785 -8z m655 -2167 c22 -1 146 -5 275 -9 129 -4 262 -9 295 -11 33 -3 123 -7 200 -10 291 -13 357 -21 411 -48 55 -28 109 -83 129 -131 22 -53 48 -220 60 -386 3 -47 8 -107 10 -135 3 -27 8 -134 11 -237 l7 -188 -575 0 -576 0 -7 148 c-3 81 -11 164 -16 184 -18 70 -3 68 -608 68 -297 0 -542 -4 -545 -9 -16 -26 -28 -1399 -14 -1661 l3 -55 535 0 c520 0 536 1 570 20 66 39 73 65 78 276 l5 189 580 0 580 0 -7 -187 c-4 -104 -9 -197 -11 -208 -2 -11 -7 -54 -10 -95 -17 -208 -48 -438 -64 -475 -53 -116 -195 -185 -408 -200 -239 -16 -838 -27 -1814 -32 -1209 -6 -1133 -11 -1223 68 -85 75 -121 178 -155 450 -45 346 -55 556 -56 1124 0 569 7 689 56 1041 31 225 52 289 124 372 72 83 156 126 275 142 54 7 1763 3 1885 -5z m-2859 -102 c-4 -60 -11 -162 -16 -228 -22 -276 -45 -732 -54 -1040 -3 -116 5 -386 18 -605 21 -336 29 -469 51 -785 14 -192 27 -362 30 -377 l5 -28 -288 0 c-293 0 -654 12 -932 30 -275 18 -554 43 -576 51 -46 17 -390 668 -488 921 -45 117 -121 346 -151 456 -10 34 -21 62 -25 62 -12 0 -65 -152 -115 -326 -64 -220 -155 -643 -201 -926 -9 -60 -21 -108 -26 -108 -40 0 -536 56 -661 75 -170 25 -204 39 -245 99 -41 61 -108 307 -146 542 -49 301 -61 462 -60 844 1 449 17 636 80 965 44 225 45 225 374 260 135 14 258 27 274 30 l29 5 -6 -52 c-3 -29 -17 -141 -31 -248 -60 -458 -68 -570 -73 -945 -2 -198 0 -378 4 -400 8 -37 11 -31 37 100 78 385 189 766 319 1096 74 188 194 458 211 476 9 10 99 19 456 48 30 2 87 7 125 9 39 3 109 8 158 12 75 5 87 4 87 -9 0 -42 34 -268 61 -407 91 -465 252 -1035 373 -1315 46 -108 123 -242 132 -232 2 2 0 136 -6 298 -14 415 -12 818 5 1069 17 245 43 560 50 606 l5 31 98 7 c212 14 490 26 742 32 146 4 267 8 269 10 2 2 29 4 59 4 l55 0 -7 -107z m5649 -28 c371 -28 802 -63 860 -70 22 -2 72 -7 110 -10 39 -3 88 -8 110 -10 76 -9 130 -14 240 -25 210 -21 265 -39 328 -109 96 -107 132 -270 144 -653 l6 -218 -355 0 -356 0 -7 118 c-8 134 -22 174 -70 196 -54 26 -263 39 -603 39 -55 0 -56 -5 -42 -185 6 -90 14 -174 17 -188 9 -48 11 -636 3 -745 -21 -276 -21 -271 -1 -297 19 -23 22 -23 188 -21 181 1 347 16 387 34 52 24 96 117 116 246 6 37 15 70 20 73 4 3 136 6 292 8 156 1 312 5 347 9 l64 6 -7 -114 c-15 -246 -60 -476 -126 -647 -50 -131 -138 -195 -310 -226 -293 -54 -1456 -157 -1795 -160 -165 -1 -185 1 -235 21 -69 28 -123 72 -155 127 -45 76 -48 126 -28 468 14 256 18 473 18 1193 l0 880 27 46 c64 109 187 187 353 224 82 18 97 18 460 -10z m-5231 -5 c14 -5 32 -20 41 -34 15 -22 15 -27 1 -55 -9 -17 -37 -41 -64 -56 -48 -26 -102 -87 -137 -155 -11 -21 -19 -63 -21 -110 -6 -128 -3 -123 -87 -117 -61 4 -74 8 -94 31 -18 22 -23 39 -22 84 1 92 14 148 45 193 30 44 40 50 119 68 28 7 54 16 58 21 5 4 12 32 15 61 7 51 9 55 42 66 44 15 72 16 104 3z m5981 -932 c14 -62 27 -211 32 -368 6 -197 -7 -392 -39 -577 l-21 -123 -84 0 -83 0 0 28 c0 15 5 129 11 254 12 219 8 361 -18 721 l-6 87 101 0 c97 0 102 -1 107 -22z m-1767 -93 c14 -14 2 -1125 -13 -1205 -2 -8 -6 -114 -10 -235 -6 -189 -5 -229 10 -284 48 -184 169 -302 360 -351 102 -26 235 -26 591 1 151 11 288 19 305 17 l30 -3 -52 -75 c-700 -1015 -1977 -1717 -3429 -1884 -238 -28 -419 -37 -690 -35 -256 2 -337 6 -560 29 -642 67 -1277 247 -1835 520 -836 410 -1451 980 -1850 1714 l-48 89 17 101 c24 137 105 543 115 568 5 15 16 -5 46 -89 52 -141 255 -549 390 -780 98 -168 109 -183 138 -188 107 -18 638 -59 902 -70 77 -4 181 -8 230 -10 218 -10 933 -17 937 -9 2 5 -8 167 -23 359 -33 430 -65 919 -80 1247 -14 288 -15 283 65 275 67 -6 86 -30 86 -106 0 -31 -7 -81 -15 -111 -25 -93 -21 -123 24 -163 21 -19 45 -38 53 -43 12 -7 17 -41 22 -164 16 -366 54 -719 96 -896 55 -231 214 -395 411 -423 35 -5 129 -9 209 -10 80 0 281 0 447 0 l302 -1 3 -42 3 -43 68 -3 c74 -3 82 5 53 61 l-15 27 78 0 c43 0 119 3 169 6 107 8 117 -2 57 -55 -19 -17 -35 -33 -35 -36 0 -3 93 -4 207 -3 l207 3 -3 48 -3 47 84 1 c46 0 94 2 108 4 14 2 167 6 340 9 l315 5 -45 -20 c-25 -12 -67 -29 -95 -40 -68 -27 -95 -41 -95 -51 0 -14 216 -10 227 5 6 6 16 30 23 52 7 22 16 43 19 48 4 4 59 9 122 12 289 13 381 29 505 90 130 64 217 166 248 290 16 64 48 339 67 575 13 160 16 540 5 558 -5 9 -87 12 -294 12 l-287 0 37 30 c36 29 108 147 108 175 0 12 -16 15 -80 15 l-80 0 0 -110 0 -110 -42 0 -43 0 3 110 3 110 -835 0 -836 0 0 35 0 35 835 0 835 0 0 95 c0 84 2 95 18 96 9 0 25 2 35 4 24 5 27 -7 30 -106 l2 -84 84 -3 c93 -3 101 1 101 56 0 39 13 67 48 105 l26 27 168 0 168 0 0 96 0 97 96 -6 c53 -3 99 -8 102 -12z"/>
 <path d="M5604 7860 c-246 -64 -475 -209 -704 -447 l-124 -128 34 -3 c39 -4 57 12 114 103 28 45 35 50 72 53 49 4 94 -27 94 -64 0 -30 39 -110 75 -153 l27 -31 327 2 326 3 3 343 2 342 -87 -1 c-52 0 -117 -8 -159 -19z"/>
 <path d="M5932 7539 l3 -344 563 -3 c309 -1 562 1 562 6 0 20 -139 178 -253 288 -186 180 -343 279 -555 351 -89 30 -125 37 -215 41 l-107 5 2 -344z"/>
 <path d="M5195 7830 c-433 -103 -836 -280 -1207 -533 -65 -44 -123 -86 -129 -93 -10 -12 48 -14 369 -14 l380 0 45 61 c169 227 374 414 607 552 52 32 86 57 75 56 -11 0 -74 -13 -140 -29z"/>
 <path d="M6533 7801 c195 -119 403 -306 547 -491 36 -46 73 -92 83 -102 16 -17 42 -18 393 -18 246 0 373 3 369 10 -11 18 -197 147 -310 215 -319 192 -702 345 -1062 425 -51 11 -98 20 -105 20 -7 0 32 -27 85 -59z"/>
 <path d="M4525 7728 c-328 -90 -644 -203 -913 -324 -189 -86 -392 -191 -392 -204 0 -5 107 -9 238 -9 221 -1 239 0 267 19 17 11 87 61 157 112 193 141 439 284 673 391 88 40 78 45 -30 15z"/>
 <path d="M7151 7746 c2 -2 51 -24 109 -51 226 -102 496 -263 706 -420 l112 -85 247 0 c148 0 244 4 240 9 -21 35 -475 247 -737 345 -255 95 -711 232 -677 202z"/>
 <path d="M2955 7037 c-248 -164 -452 -331 -670 -551 -159 -160 -379 -421 -369 -437 3 -5 203 -9 444 -9 l438 0 62 118 c75 144 219 360 336 507 48 61 163 185 255 278 l166 167 -276 0 -276 0 -110 -73z"/>
 <path d="M3652 7030 c-175 -155 -410 -426 -561 -650 -75 -110 -184 -290 -197 -323 -5 -15 47 -16 574 -17 319 0 586 2 594 5 12 5 14 15 7 52 -11 55 -42 93 -78 93 -32 0 -136 53 -175 89 -39 36 -76 96 -76 125 0 13 7 43 15 66 8 23 19 70 25 103 9 57 8 64 -15 97 -29 42 -31 69 -9 112 10 19 14 42 10 62 -6 26 -1 35 36 69 23 21 50 43 59 48 9 4 20 24 23 42 7 40 26 58 78 76 46 15 55 10 79 -43 25 -57 44 -73 135 -107 92 -34 130 -36 164 -9 15 12 41 20 66 20 26 0 46 6 56 18 15 18 88 140 88 148 0 2 -182 4 -404 4 l-404 0 -90 -80z"/>
 <path d="M5236 7068 c9 -67 32 -135 80 -235 24 -51 44 -99 44 -106 0 -8 -7 -31 -16 -52 -12 -28 -14 -66 -12 -159 2 -87 -1 -130 -11 -154 -13 -32 -16 -33 -50 -27 -20 4 -61 7 -91 8 l-54 2 -38 -54 c-21 -30 -47 -86 -59 -123 -16 -54 -25 -71 -44 -78 -38 -14 -66 2 -105 61 l-36 54 -84 -3 c-65 -3 -88 -7 -98 -20 -28 -38 -82 -125 -82 -133 0 -5 274 -8 633 -6 l632 2 3 533 2 532 -240 0 -240 0 17 -42 c9 -24 27 -57 40 -74 43 -57 47 -85 21 -139 -13 -27 -28 -50 -34 -52 -7 -2 -19 18 -29 44 -9 26 -28 72 -43 101 -20 39 -27 68 -26 108 l0 54 -43 0 -43 0 6 -42z"/>
 <path d="M5932 6578 l3 -533 835 -3 c459 -1 840 0 847 2 9 4 1 37 -28 118 -135 378 -239 600 -398 845 l-66 103 -598 0 -597 0 2 -532z"/>
 <path d="M7230 7104 c0 -3 8 -18 18 -32 25 -37 138 -244 202 -372 83 -164 118 -250 190 -460 l67 -195 592 -2 c542 -1 592 0 586 15 -14 36 -148 255 -220 357 -151 216 -374 471 -537 615 l-90 80 -404 0 c-222 0 -404 -3 -404 -6z"/>
 <path d="M8329 6943 c92 -93 207 -217 255 -278 116 -144 270 -377 336 -506 29 -57 58 -107 64 -111 6 -4 133 -7 283 -8 l273 -1 33 68 c30 62 86 121 129 135 20 7 -30 66 -207 244 -219 220 -491 443 -692 570 l-87 54 -277 0 -276 0 166 -167z"/>
 <path d="M4220 6093 c-23 -9 -50 -35 -45 -43 7 -11 142 -12 149 -2 15 24 -68 60 -104 45z"/>
 <path d="M8363 2538 c-65 -12 -89 -35 -126 -125 -15 -37 -30 -73 -33 -80 -8 -16 362 -19 382 -2 35 29 6 79 -45 79 -26 0 -26 1 -1 47 24 45 25 57 4 77 -18 18 -95 20 -181 4z"/>
 <path d="M9289 2474 c-9 -11 -14 -41 -14 -83 l0 -66 213 -3 c116 -1 212 0 212 3 0 14 -62 95 -90 119 -40 33 -77 33 -141 0 -28 -14 -52 -24 -53 -22 -1 2 -6 17 -12 33 -8 27 -14 30 -55 33 -34 2 -50 -2 -60 -14z"/>
 <path d="M8916 2383 c-14 -25 -26 -48 -26 -52 0 -4 28 -8 63 -9 51 -2 64 1 74 17 10 16 7 23 -20 48 -52 48 -63 48 -91 -4z"/>
 <path d="M5595 2216 c-28 -18 -85 -70 -128 -115 -42 -44 -92 -88 -109 -97 -21 -11 -74 -20 -150 -25 -65 -4 -135 -13 -156 -19 -56 -15 -104 -12 -137 10 -56 37 -125 19 -155 -41 -35 -68 -90 -76 -90 -13 0 60 -28 59 -207 -7 -13 -5 -26 -21 -29 -36 -10 -39 58 -166 203 -383 l118 -175 545 0 545 0 3 468 2 467 -103 0 c-100 0 -104 -1 -152 -34z"/>
 <path d="M5932 1783 l3 -468 525 -3 c289 -1 535 0 548 3 16 4 60 61 148 195 127 193 251 429 332 635 l40 100 -141 3 c-136 2 -141 2 -166 -21 -31 -29 -165 -115 -197 -127 -47 -18 -154 38 -154 81 0 14 -7 19 -29 19 -20 0 -36 9 -49 25 l-20 25 -421 0 -421 0 2 -467z"/>
 <path d="M7610 2239 c0 -23 -147 -339 -238 -510 -115 -215 -142 -264 -194 -341 -21 -31 -38 -61 -38 -67 0 -7 127 -10 368 -11 l368 0 134 112 c146 121 323 296 456 449 46 53 84 99 84 102 0 2 -19 3 -42 0 -24 -2 -54 2 -68 9 -25 13 -88 127 -89 161 -1 28 29 66 68 87 36 19 35 19 -386 20 -290 0 -423 -3 -423 -11z m406 -223 c91 -30 174 -73 174 -89 0 -19 -34 -36 -103 -52 -79 -19 -121 -19 -157 0 -29 15 -55 69 -46 96 29 82 28 81 132 45z"/>
 <path d="M8836 2233 c4 -10 9 -40 12 -66 5 -60 -14 -83 -99 -121 -46 -21 -68 -40 -106 -89 -124 -163 -336 -386 -548 -574 l-80 -71 258 -1 259 -2 101 62 c255 156 446 292 597 424 113 100 381 369 418 423 l23 32 -212 0 c-197 0 -214 -1 -245 -21 -42 -26 -43 -45 -4 -107 32 -53 37 -81 18 -100 -20 -20 -47 -14 -64 16 -9 15 -31 47 -48 72 -23 34 -31 56 -31 90 l0 45 -129 3 c-120 2 -128 1 -120 -15z"/>
 <path d="M4386 1695 c-13 -66 -58 -77 -200 -50 -59 11 -93 13 -130 6 -105 -19 -236 -85 -299 -149 l-38 -38 78 -66 c43 -35 88 -70 101 -77 16 -9 120 -11 392 -10 204 1 370 3 370 5 0 2 -34 54 -76 116 -42 62 -98 155 -126 206 -27 50 -53 92 -58 92 -4 0 -11 -16 -14 -35z"/>
 <path d="M3644 1362 c-10 -20 -20 -40 -22 -44 -2 -3 29 -6 67 -6 39 0 71 2 71 5 0 5 -68 65 -85 75 -7 5 -19 -6 -31 -30z"/>
 <path d="M3590 1221 c0 -11 17 -41 39 -68 35 -44 50 -53 179 -105 192 -79 524 -188 720 -237 90 -23 171 -41 180 -41 10 0 -27 18 -80 40 -210 85 -478 232 -675 372 l-82 58 -140 0 c-132 0 -141 -1 -141 -19z"/>
 <path d="M4050 1209 c163 -118 447 -265 685 -355 185 -70 589 -175 668 -174 13 1 -21 23 -83 55 -188 98 -376 250 -522 421 l-72 84 -359 0 -360 0 43 -31z"/>
 <path d="M4892 1169 c176 -199 430 -372 651 -443 79 -26 230 -56 280 -56 l27 0 0 285 0 285 -511 0 -511 0 64 -71z"/>
 <path d="M5930 954 l0 -287 72 8 c304 29 636 215 886 495 l63 70 -510 0 -511 0 0 -286z"/>
 <path d="M6982 1156 c-146 -171 -334 -323 -522 -421 -58 -30 -97 -54 -88 -55 39 0 288 54 418 91 306 87 565 202 830 367 183 114 206 102 -207 102 l-359 0 -72 -84z"/>
 <path d="M7746 1129 c-166 -112 -419 -249 -591 -318 -55 -22 -92 -41 -83 -41 9 0 99 21 200 46 339 85 721 224 995 363 l118 60 -240 -1 -240 0 -159 -109z"/>
 </g>

</svg>